<?xml version="1.0" encoding="UTF-8" standalone="no"?>
<svg
   xmlns:dc="http://purl.org/dc/elements/1.1/"
   xmlns:cc="http://creativecommons.org/ns#"
   xmlns:rdf="http://www.w3.org/1999/02/22-rdf-syntax-ns#"
   xmlns:svg="http://www.w3.org/2000/svg"
   xmlns="http://www.w3.org/2000/svg"
   xmlns:sodipodi="http://sodipodi.sourceforge.net/DTD/sodipodi-0.dtd"
   xmlns:inkscape="http://www.inkscape.org/namespaces/inkscape"
   viewBox="0 0 24 24"
   width="18"
   height="18"
   version="1.1"
   id="svg6"
   sodipodi:docname="sun.svg"
   inkscape:version="0.92.3 (2405546, 2018-03-11)"
   style="fill:#000000">
  <metadata
     id="metadata12">
    <rdf:RDF>
      <cc:Work
         rdf:about="">
        <dc:format>image/svg+xml</dc:format>
        <dc:type
           rdf:resource="http://purl.org/dc/dcmitype/StillImage" />
      </cc:Work>
    </rdf:RDF>
  </metadata>
  <defs
     id="defs10" />
  <sodipodi:namedview
     pagecolor="#ffffff"
     bordercolor="#666666"
     borderopacity="1"
     objecttolerance="10"
     gridtolerance="10"
     guidetolerance="10"
     inkscape:pageopacity="0"
     inkscape:pageshadow="2"
     inkscape:window-width="1680"
     inkscape:window-height="982"
     id="namedview8"
     showgrid="false"
     inkscape:zoom="34.704802"
     inkscape:cx="5.6333303"
     inkscape:cy="7.738062"
     inkscape:window-x="0"
     inkscape:window-y="0"
     inkscape:window-maximized="1"
     inkscape:current-layer="svg6" />
  <path
     d="M 6.3522501,4.7889755 4.4121833,2.8508773 2.8924643,4.3775356 4.8217529,6.3156338 Z M 3.377481,10.917263 H 0.14403638 v 2.165473 H 3.377481 Z M 13.077815,0.14403638 h -2.15563 V 3.3381087 h 2.15563 z m 8.02972,4.23349922 -1.519718,-1.5266583 -1.929289,1.9380982 1.519719,1.5266583 z m -3.459785,14.8334884 1.929289,1.948925 1.519719,-1.526658 -1.940067,-1.938098 z m 2.97477,-8.293761 v 2.165473 h 3.233444 V 10.917263 Z M 12,5.5035816 c -3.5675671,0 -6.4668892,2.9125609 -6.4668892,6.4964174 0,3.583858 2.8993221,6.496418 6.4668892,6.496418 3.567568,0 6.466889,-2.91256 6.466889,-6.496418 C 18.466889,8.4161425 15.567568,5.5035816 12,5.5035816 Z M 10.922185,23.855963 h 2.15563 v -3.194072 h -2.15563 z m -8.0297207,-4.2335 1.519719,1.526659 1.9292887,-1.948926 -1.5197191,-1.526658 z"
     id="path4"
     style="fill:#ffffff;stroke:#666666;stroke-width:0.28807276;stroke-miterlimit:4;stroke-dasharray:none"
     inkscape:connector-curvature="0" />
</svg>
